<svg width="48" height="48" viewBox="0 0 48 48" fill="none" xmlns="http://www.w3.org/2000/svg">
<path d="M35.544 13.416H34.272C33.96 13.416 33.648 13.416 33.336 13.464C30.96 8.61602 26.16 5.52002 20.88 5.52002C17.208 5.52002 13.68 7.00802 11.112 9.64802C8.66398 12.12 7.19998 15.408 6.95998 18.888C3.11998 20.256 0.47998 24.024 0.47998 28.296C0.47998 33.528 4.41598 37.896 9.43198 38.256H16.248C16.776 38.256 17.208 37.824 17.208 37.296C17.208 36.768 16.776 36.336 16.248 36.336H9.52798C5.51998 36.048 2.39998 32.52 2.39998 28.296C2.39998 24.648 4.77598 21.456 8.15998 20.544L8.85598 20.352L8.87998 19.632C8.92798 16.392 10.224 13.296 12.48 10.992C14.688 8.71202 17.712 7.44002 20.88 7.44002C25.632 7.44002 29.928 10.344 31.872 14.856L32.16 15.528L32.88 15.432C33.336 15.36 33.792 15.336 34.248 15.336H35.52C41.064 15.336 45.576 20.04 45.576 25.824C45.576 30.48 42.576 34.632 38.256 35.904C37.752 36.048 37.44 36.552 37.56 37.08C37.704 37.584 38.208 37.896 38.736 37.776C38.76 37.776 38.784 37.752 38.808 37.752C43.92 36.216 47.496 31.32 47.496 25.824C47.52 18.984 42.144 13.416 35.544 13.416Z" fill="#0065AB"/>
<path d="M26.1844 22.176C25.6564 22.176 25.2244 22.608 25.2244 23.136C25.2244 23.664 25.6564 24.096 26.1844 24.096H31.3684L20.2324 34.632C19.8484 34.992 19.8244 35.616 20.1844 36C20.5444 36.384 21.1684 36.408 21.5524 36.048L32.6644 25.536V30.6C32.6644 31.128 33.0964 31.56 33.6244 31.56C34.1524 31.56 34.5844 31.128 34.5844 30.6V22.2H26.1844V22.176Z" fill="#00BFA9"/>
<path d="M21.5522 28.896V22.176H14.8322C14.3042 22.176 13.8722 22.608 13.8722 23.136C13.8722 23.664 14.3042 24.096 14.8322 24.096H18.2402L11.4962 30.288C11.1122 30.648 11.1122 31.272 11.4722 31.656C11.8322 32.016 12.4082 32.04 12.7922 31.704L19.6322 25.416V28.896C19.6322 29.424 20.0642 29.856 20.5922 29.856C21.1202 29.856 21.5522 29.424 21.5522 28.896Z" fill="#00BFA9"/>
<path d="M26.9042 36.096C26.9042 36.624 27.3362 37.056 27.8642 37.056H31.4402L25.2962 43.752C24.9362 44.16 24.9842 44.76 25.3922 45.096C25.7762 45.432 26.3522 45.408 26.7122 45.048L32.6642 38.568V41.856C32.6642 42.384 33.0962 42.816 33.6242 42.816C34.1522 42.816 34.5842 42.384 34.5842 41.856V35.136H27.8642C27.3362 35.136 26.9042 35.568 26.9042 36.096Z" fill="#00BFA9"/>
</svg>
